<svg xmlns="http://www.w3.org/2000/svg" viewBox="0 0 900 220">
<defs><linearGradient id="g" x1="0" y1="0" x2="1" y2="1">
<stop offset="0%" stop-color="#EC4899"/><stop offset="45%" stop-color="#8B5CF6"/><stop offset="80%" stop-color="#2563EB"/></linearGradient>
<linearGradient id="t" x1="0" y1="0" x2="1" y2="0">
<stop offset="0%" stop-color="#2563EB"/><stop offset="100%" stop-color="#EC4899"/></linearGradient></defs>
<g transform="translate(10,10) scale(.7)">
<g fill="none" stroke="url(#g)" stroke-width="12" stroke-linecap="round" stroke-linejoin="round">
<rect x="42" y="38" width="94" height="144" rx="16" transform="rotate(12 89 110)"/>
<rect x="82" y="58" width="94" height="144" rx="16" transform="rotate(12 129 130)"/>
<line x1="118" y1="66" x2="146" y2="72"/></g>
<g fill="#F97316"><path d="M186 34l5 15 15 5-15 5-5 15-5-15-15-5 15-5z"/><path d="M214 58l4 12 12 4-12 4-4 12-4-12-12-4 12-4z"/></g>
</g>
<text x="190" y="140" font-size="96" font-family="Plus Jakarta Sans, Arial, sans-serif" font-weight="700">
<tspan fill="#0B1028">Pixel</tspan><tspan fill="#2563EB">Shrink</tspan><tspan fill="#EC4899">AI</tspan>
</text></svg>